<mxfile host="app.diagrams.net" agent="Mozilla/5.0 (Macintosh; Intel Mac OS X 10_15_7) AppleWebKit/537.36 (KHTML, like Gecko) Chrome/136.0.0.0 Safari/537.36" version="27.0.6">
  <diagram name="Pagina-1" id="fwnK26li-4dN03EALSUw">
    <mxGraphModel dx="2365" dy="1610" grid="1" gridSize="10" guides="1" tooltips="1" connect="1" arrows="1" fold="1" page="1" pageScale="1" pageWidth="827" pageHeight="1169" math="0" shadow="0">
      <root>
        <mxCell id="0" />
        <mxCell id="1" parent="0" />
        <mxCell id="wxSaQS_MVH6TNpJF-AeM-1" value="" style="edgeStyle=orthogonalEdgeStyle;rounded=0;orthogonalLoop=1;jettySize=auto;html=1;endArrow=none;startFill=0;" edge="1" parent="1" source="wxSaQS_MVH6TNpJF-AeM-2" target="wxSaQS_MVH6TNpJF-AeM-9">
          <mxGeometry relative="1" as="geometry" />
        </mxCell>
        <mxCell id="wxSaQS_MVH6TNpJF-AeM-2" value="" style="ellipse;whiteSpace=wrap;html=1;aspect=fixed;fillColor=#F2FF3D;" vertex="1" parent="1">
          <mxGeometry x="483" y="972" width="14" height="14" as="geometry" />
        </mxCell>
        <mxCell id="wxSaQS_MVH6TNpJF-AeM-3" value="Id_Encounter&lt;div&gt;&amp;nbsp;+&lt;div&gt;Code_Procedure&lt;br&gt;&lt;/div&gt;&lt;/div&gt;" style="text;html=1;align=center;verticalAlign=middle;resizable=0;points=[];autosize=1;strokeColor=none;fillColor=none;" vertex="1" parent="1">
          <mxGeometry x="435" y="897" width="110" height="60" as="geometry" />
        </mxCell>
        <mxCell id="wxSaQS_MVH6TNpJF-AeM-4" style="edgeStyle=orthogonalEdgeStyle;rounded=0;orthogonalLoop=1;jettySize=auto;html=1;exitX=1;exitY=1;exitDx=0;exitDy=0;entryX=0;entryY=0.5;entryDx=0;entryDy=0;curved=1;endArrow=classic;startFill=0;endFill=1;" edge="1" parent="1" source="wxSaQS_MVH6TNpJF-AeM-9" target="wxSaQS_MVH6TNpJF-AeM-37">
          <mxGeometry relative="1" as="geometry">
            <Array as="points">
              <mxPoint x="695" y="992" />
              <mxPoint x="753" y="992" />
            </Array>
          </mxGeometry>
        </mxCell>
        <mxCell id="wxSaQS_MVH6TNpJF-AeM-5" style="edgeStyle=orthogonalEdgeStyle;rounded=0;orthogonalLoop=1;jettySize=auto;html=1;exitX=0.5;exitY=1;exitDx=0;exitDy=0;entryX=0.5;entryY=0;entryDx=0;entryDy=0;endArrow=none;startFill=0;" edge="1" parent="1" source="wxSaQS_MVH6TNpJF-AeM-9" target="wxSaQS_MVH6TNpJF-AeM-46">
          <mxGeometry relative="1" as="geometry" />
        </mxCell>
        <mxCell id="wxSaQS_MVH6TNpJF-AeM-6" style="edgeStyle=orthogonalEdgeStyle;rounded=0;orthogonalLoop=1;jettySize=auto;html=1;exitX=0;exitY=0;exitDx=0;exitDy=0;entryX=0.5;entryY=1;entryDx=0;entryDy=0;endArrow=none;startFill=0;curved=1;" edge="1" parent="1" source="wxSaQS_MVH6TNpJF-AeM-9" target="wxSaQS_MVH6TNpJF-AeM-48">
          <mxGeometry relative="1" as="geometry">
            <mxPoint x="663" y="852" as="targetPoint" />
          </mxGeometry>
        </mxCell>
        <mxCell id="wxSaQS_MVH6TNpJF-AeM-7" style="edgeStyle=orthogonalEdgeStyle;rounded=0;orthogonalLoop=1;jettySize=auto;html=1;exitX=0.5;exitY=0;exitDx=0;exitDy=0;entryX=0.5;entryY=1;entryDx=0;entryDy=0;curved=1;endArrow=none;startFill=0;" edge="1" parent="1" source="wxSaQS_MVH6TNpJF-AeM-9" target="wxSaQS_MVH6TNpJF-AeM-29">
          <mxGeometry relative="1" as="geometry" />
        </mxCell>
        <mxCell id="wxSaQS_MVH6TNpJF-AeM-8" style="edgeStyle=orthogonalEdgeStyle;rounded=0;orthogonalLoop=1;jettySize=auto;html=1;exitX=1;exitY=0.5;exitDx=0;exitDy=0;entryX=0;entryY=0.5;entryDx=0;entryDy=0;curved=1;endArrow=none;startFill=0;" edge="1" parent="1" source="wxSaQS_MVH6TNpJF-AeM-9" target="wxSaQS_MVH6TNpJF-AeM-130">
          <mxGeometry relative="1" as="geometry">
            <Array as="points">
              <mxPoint x="823" y="979" />
              <mxPoint x="823" y="764" />
              <mxPoint x="923" y="764" />
            </Array>
          </mxGeometry>
        </mxCell>
        <mxCell id="wxSaQS_MVH6TNpJF-AeM-9" value="" style="ellipse;whiteSpace=wrap;html=1;aspect=fixed;fillColor=#FFFFFF;" vertex="1" parent="1">
          <mxGeometry x="683" y="972" width="14" height="14" as="geometry" />
        </mxCell>
        <mxCell id="wxSaQS_MVH6TNpJF-AeM-10" style="edgeStyle=orthogonalEdgeStyle;rounded=0;orthogonalLoop=1;jettySize=auto;html=1;exitX=0.5;exitY=0;exitDx=0;exitDy=0;entryX=1;entryY=1;entryDx=0;entryDy=0;endArrow=none;startFill=0;curved=1;" edge="1" parent="1" source="wxSaQS_MVH6TNpJF-AeM-11" target="wxSaQS_MVH6TNpJF-AeM-2">
          <mxGeometry relative="1" as="geometry" />
        </mxCell>
        <mxCell id="wxSaQS_MVH6TNpJF-AeM-11" value="" style="ellipse;whiteSpace=wrap;html=1;aspect=fixed;fillColor=#FFFFFF;" vertex="1" parent="1">
          <mxGeometry x="503" y="1022" width="14" height="14" as="geometry" />
        </mxCell>
        <mxCell id="wxSaQS_MVH6TNpJF-AeM-12" style="edgeStyle=orthogonalEdgeStyle;rounded=0;orthogonalLoop=1;jettySize=auto;html=1;exitX=0.5;exitY=0;exitDx=0;exitDy=0;entryX=0;entryY=1;entryDx=0;entryDy=0;curved=1;endArrow=none;startFill=0;" edge="1" parent="1" source="wxSaQS_MVH6TNpJF-AeM-13" target="wxSaQS_MVH6TNpJF-AeM-2">
          <mxGeometry relative="1" as="geometry" />
        </mxCell>
        <mxCell id="wxSaQS_MVH6TNpJF-AeM-13" value="" style="ellipse;whiteSpace=wrap;html=1;aspect=fixed;fillColor=#FFFFFF;" vertex="1" parent="1">
          <mxGeometry x="463" y="1022" width="14" height="14" as="geometry" />
        </mxCell>
        <mxCell id="wxSaQS_MVH6TNpJF-AeM-14" value="Start" style="text;html=1;align=center;verticalAlign=middle;resizable=0;points=[];autosize=1;strokeColor=none;fillColor=none;" vertex="1" parent="1">
          <mxGeometry x="438" y="1030" width="50" height="30" as="geometry" />
        </mxCell>
        <mxCell id="wxSaQS_MVH6TNpJF-AeM-15" value="Stop" style="text;html=1;align=center;verticalAlign=middle;resizable=0;points=[];autosize=1;strokeColor=none;fillColor=none;" vertex="1" parent="1">
          <mxGeometry x="503" y="1030" width="50" height="30" as="geometry" />
        </mxCell>
        <mxCell id="wxSaQS_MVH6TNpJF-AeM-16" style="edgeStyle=orthogonalEdgeStyle;rounded=0;orthogonalLoop=1;jettySize=auto;html=1;exitX=1;exitY=0.5;exitDx=0;exitDy=0;entryX=0;entryY=0.5;entryDx=0;entryDy=0;endArrow=none;startFill=0;" edge="1" parent="1" source="wxSaQS_MVH6TNpJF-AeM-17" target="wxSaQS_MVH6TNpJF-AeM-2">
          <mxGeometry relative="1" as="geometry" />
        </mxCell>
        <mxCell id="wxSaQS_MVH6TNpJF-AeM-17" value="" style="ellipse;whiteSpace=wrap;html=1;aspect=fixed;fillColor=#FFFFFF;" vertex="1" parent="1">
          <mxGeometry x="393" y="972" width="14" height="14" as="geometry" />
        </mxCell>
        <mxCell id="wxSaQS_MVH6TNpJF-AeM-24" value="Code_Procedure" style="text;html=1;align=center;verticalAlign=middle;resizable=0;points=[];autosize=1;strokeColor=none;fillColor=none;" vertex="1" parent="1">
          <mxGeometry x="345" y="986" width="110" height="30" as="geometry" />
        </mxCell>
        <mxCell id="wxSaQS_MVH6TNpJF-AeM-25" style="edgeStyle=orthogonalEdgeStyle;rounded=0;orthogonalLoop=1;jettySize=auto;html=1;entryX=0;entryY=0.5;entryDx=0;entryDy=0;endArrow=none;startFill=0;" edge="1" parent="1" source="wxSaQS_MVH6TNpJF-AeM-26" target="wxSaQS_MVH6TNpJF-AeM-17">
          <mxGeometry relative="1" as="geometry" />
        </mxCell>
        <mxCell id="wxSaQS_MVH6TNpJF-AeM-26" value="" style="ellipse;whiteSpace=wrap;html=1;aspect=fixed;fillColor=#FFFFFF;" vertex="1" parent="1">
          <mxGeometry x="323" y="972" width="14" height="14" as="geometry" />
        </mxCell>
        <mxCell id="wxSaQS_MVH6TNpJF-AeM-27" value="Description" style="text;html=1;align=center;verticalAlign=middle;resizable=0;points=[];autosize=1;strokeColor=none;fillColor=none;" vertex="1" parent="1">
          <mxGeometry x="290" y="942" width="80" height="30" as="geometry" />
        </mxCell>
        <mxCell id="wxSaQS_MVH6TNpJF-AeM-28" value="Id_Encounter" style="text;html=1;align=center;verticalAlign=middle;resizable=0;points=[];autosize=1;strokeColor=none;fillColor=none;" vertex="1" parent="1">
          <mxGeometry x="593" y="986" width="90" height="30" as="geometry" />
        </mxCell>
        <mxCell id="wxSaQS_MVH6TNpJF-AeM-29" value="" style="ellipse;whiteSpace=wrap;html=1;aspect=fixed;fillColor=#FFFFFF;" vertex="1" parent="1">
          <mxGeometry x="751" y="868" width="14" height="14" as="geometry" />
        </mxCell>
        <mxCell id="wxSaQS_MVH6TNpJF-AeM-30" style="edgeStyle=orthogonalEdgeStyle;rounded=0;orthogonalLoop=1;jettySize=auto;html=1;exitX=1;exitY=0.5;exitDx=0;exitDy=0;entryX=0;entryY=0.5;entryDx=0;entryDy=0;endArrow=classic;startFill=0;endFill=1;" edge="1" parent="1" source="wxSaQS_MVH6TNpJF-AeM-37" target="wxSaQS_MVH6TNpJF-AeM-61">
          <mxGeometry relative="1" as="geometry" />
        </mxCell>
        <mxCell id="wxSaQS_MVH6TNpJF-AeM-31" style="edgeStyle=orthogonalEdgeStyle;rounded=0;orthogonalLoop=1;jettySize=auto;html=1;exitX=0.5;exitY=1;exitDx=0;exitDy=0;entryX=0.5;entryY=0;entryDx=0;entryDy=0;curved=1;endArrow=none;startFill=0;" edge="1" parent="1" source="wxSaQS_MVH6TNpJF-AeM-37" target="wxSaQS_MVH6TNpJF-AeM-64">
          <mxGeometry relative="1" as="geometry" />
        </mxCell>
        <mxCell id="wxSaQS_MVH6TNpJF-AeM-32" style="edgeStyle=orthogonalEdgeStyle;rounded=0;orthogonalLoop=1;jettySize=auto;html=1;exitX=0;exitY=0;exitDx=0;exitDy=0;entryX=1;entryY=1;entryDx=0;entryDy=0;strokeColor=default;curved=1;endArrow=none;startFill=0;" edge="1" parent="1" source="wxSaQS_MVH6TNpJF-AeM-37" target="wxSaQS_MVH6TNpJF-AeM-62">
          <mxGeometry relative="1" as="geometry" />
        </mxCell>
        <mxCell id="wxSaQS_MVH6TNpJF-AeM-33" style="edgeStyle=orthogonalEdgeStyle;rounded=0;orthogonalLoop=1;jettySize=auto;html=1;exitX=0.5;exitY=0;exitDx=0;exitDy=0;entryX=0.5;entryY=1;entryDx=0;entryDy=0;curved=1;endArrow=none;startFill=0;" edge="1" parent="1" source="wxSaQS_MVH6TNpJF-AeM-37" target="wxSaQS_MVH6TNpJF-AeM-72">
          <mxGeometry relative="1" as="geometry" />
        </mxCell>
        <mxCell id="wxSaQS_MVH6TNpJF-AeM-34" style="edgeStyle=orthogonalEdgeStyle;rounded=0;orthogonalLoop=1;jettySize=auto;html=1;exitX=1;exitY=0;exitDx=0;exitDy=0;entryX=0.5;entryY=1;entryDx=0;entryDy=0;curved=1;endArrow=none;startFill=0;" edge="1" parent="1" source="wxSaQS_MVH6TNpJF-AeM-37" target="wxSaQS_MVH6TNpJF-AeM-38">
          <mxGeometry relative="1" as="geometry" />
        </mxCell>
        <mxCell id="wxSaQS_MVH6TNpJF-AeM-35" style="edgeStyle=orthogonalEdgeStyle;rounded=0;orthogonalLoop=1;jettySize=auto;html=1;exitX=0.933;exitY=0.302;exitDx=0;exitDy=0;entryX=0.5;entryY=1;entryDx=0;entryDy=0;curved=1;endArrow=none;startFill=0;exitPerimeter=0;" edge="1" parent="1" source="wxSaQS_MVH6TNpJF-AeM-37" target="wxSaQS_MVH6TNpJF-AeM-75">
          <mxGeometry relative="1" as="geometry" />
        </mxCell>
        <mxCell id="wxSaQS_MVH6TNpJF-AeM-36" style="edgeStyle=orthogonalEdgeStyle;rounded=0;orthogonalLoop=1;jettySize=auto;html=1;exitX=1.014;exitY=0.588;exitDx=0;exitDy=0;entryX=0;entryY=0.5;entryDx=0;entryDy=0;curved=1;endArrow=none;startFill=0;exitPerimeter=0;" edge="1" parent="1" source="wxSaQS_MVH6TNpJF-AeM-37" target="wxSaQS_MVH6TNpJF-AeM-76">
          <mxGeometry relative="1" as="geometry" />
        </mxCell>
        <mxCell id="wxSaQS_MVH6TNpJF-AeM-37" value="" style="ellipse;whiteSpace=wrap;html=1;aspect=fixed;fillColor=#FFFFFF;" vertex="1" parent="1">
          <mxGeometry x="856" y="986" width="14" height="14" as="geometry" />
        </mxCell>
        <mxCell id="wxSaQS_MVH6TNpJF-AeM-38" value="" style="ellipse;whiteSpace=wrap;html=1;aspect=fixed;fillColor=#FFFFFF;" vertex="1" parent="1">
          <mxGeometry x="893" y="950" width="14" height="14" as="geometry" />
        </mxCell>
        <mxCell id="wxSaQS_MVH6TNpJF-AeM-39" style="edgeStyle=orthogonalEdgeStyle;rounded=0;orthogonalLoop=1;jettySize=auto;html=1;exitX=0;exitY=0;exitDx=0;exitDy=0;entryX=0.5;entryY=0;entryDx=0;entryDy=0;curved=1;endArrow=none;startFill=0;" edge="1" parent="1" source="wxSaQS_MVH6TNpJF-AeM-46" target="wxSaQS_MVH6TNpJF-AeM-99">
          <mxGeometry relative="1" as="geometry" />
        </mxCell>
        <mxCell id="wxSaQS_MVH6TNpJF-AeM-40" style="edgeStyle=orthogonalEdgeStyle;rounded=0;orthogonalLoop=1;jettySize=auto;html=1;exitX=0;exitY=0.5;exitDx=0;exitDy=0;entryX=0.5;entryY=0;entryDx=0;entryDy=0;curved=1;endArrow=none;startFill=0;" edge="1" parent="1" source="wxSaQS_MVH6TNpJF-AeM-46" target="wxSaQS_MVH6TNpJF-AeM-97">
          <mxGeometry relative="1" as="geometry" />
        </mxCell>
        <mxCell id="wxSaQS_MVH6TNpJF-AeM-41" style="edgeStyle=orthogonalEdgeStyle;rounded=0;orthogonalLoop=1;jettySize=auto;html=1;exitX=0;exitY=1;exitDx=0;exitDy=0;entryX=0.5;entryY=0;entryDx=0;entryDy=0;curved=1;endArrow=none;startFill=0;" edge="1" parent="1" source="wxSaQS_MVH6TNpJF-AeM-46" target="wxSaQS_MVH6TNpJF-AeM-98">
          <mxGeometry relative="1" as="geometry" />
        </mxCell>
        <mxCell id="wxSaQS_MVH6TNpJF-AeM-42" style="edgeStyle=orthogonalEdgeStyle;rounded=0;orthogonalLoop=1;jettySize=auto;html=1;exitX=1;exitY=1;exitDx=0;exitDy=0;curved=1;endArrow=none;startFill=0;" edge="1" parent="1" source="wxSaQS_MVH6TNpJF-AeM-46" target="wxSaQS_MVH6TNpJF-AeM-105">
          <mxGeometry relative="1" as="geometry" />
        </mxCell>
        <mxCell id="wxSaQS_MVH6TNpJF-AeM-43" style="edgeStyle=orthogonalEdgeStyle;rounded=0;orthogonalLoop=1;jettySize=auto;html=1;exitX=0.971;exitY=0.342;exitDx=0;exitDy=0;entryX=0;entryY=0.5;entryDx=0;entryDy=0;curved=1;exitPerimeter=0;endArrow=none;startFill=0;" edge="1" parent="1" source="wxSaQS_MVH6TNpJF-AeM-46" target="wxSaQS_MVH6TNpJF-AeM-112">
          <mxGeometry relative="1" as="geometry" />
        </mxCell>
        <mxCell id="wxSaQS_MVH6TNpJF-AeM-44" style="edgeStyle=orthogonalEdgeStyle;rounded=0;orthogonalLoop=1;jettySize=auto;html=1;exitX=1;exitY=0;exitDx=0;exitDy=0;entryX=0;entryY=1;entryDx=0;entryDy=0;curved=1;" edge="1" parent="1" source="wxSaQS_MVH6TNpJF-AeM-46" target="wxSaQS_MVH6TNpJF-AeM-61">
          <mxGeometry relative="1" as="geometry">
            <mxPoint x="1143" y="1072" as="targetPoint" />
            <Array as="points">
              <mxPoint x="1013" y="1234" />
              <mxPoint x="1013" y="998" />
            </Array>
          </mxGeometry>
        </mxCell>
        <mxCell id="wxSaQS_MVH6TNpJF-AeM-45" style="edgeStyle=orthogonalEdgeStyle;rounded=0;orthogonalLoop=1;jettySize=auto;html=1;entryX=0;entryY=1;entryDx=0;entryDy=0;curved=1;exitX=0.675;exitY=0.002;exitDx=0;exitDy=0;exitPerimeter=0;" edge="1" parent="1" source="wxSaQS_MVH6TNpJF-AeM-46" target="wxSaQS_MVH6TNpJF-AeM-37">
          <mxGeometry relative="1" as="geometry">
            <Array as="points">
              <mxPoint x="692" y="1222" />
              <mxPoint x="763" y="1222" />
              <mxPoint x="763" y="998" />
            </Array>
          </mxGeometry>
        </mxCell>
        <mxCell id="wxSaQS_MVH6TNpJF-AeM-46" value="" style="ellipse;whiteSpace=wrap;html=1;aspect=fixed;fillColor=#FFFFFF;" vertex="1" parent="1">
          <mxGeometry x="683" y="1232" width="14" height="14" as="geometry" />
        </mxCell>
        <mxCell id="wxSaQS_MVH6TNpJF-AeM-47" style="edgeStyle=orthogonalEdgeStyle;rounded=0;orthogonalLoop=1;jettySize=auto;html=1;exitX=1;exitY=0;exitDx=0;exitDy=0;curved=1;endArrow=none;startFill=0;" edge="1" parent="1" source="wxSaQS_MVH6TNpJF-AeM-48" target="wxSaQS_MVH6TNpJF-AeM-53">
          <mxGeometry relative="1" as="geometry" />
        </mxCell>
        <mxCell id="wxSaQS_MVH6TNpJF-AeM-48" value="" style="ellipse;whiteSpace=wrap;html=1;aspect=fixed;fillColor=#FFFFFF;" vertex="1" parent="1">
          <mxGeometry x="653" y="756" width="14" height="14" as="geometry" />
        </mxCell>
        <mxCell id="wxSaQS_MVH6TNpJF-AeM-49" value="Code_Type_Encounter&lt;div&gt;&lt;br&gt;&lt;/div&gt;" style="text;html=1;align=center;verticalAlign=middle;resizable=0;points=[];autosize=1;strokeColor=none;fillColor=none;" vertex="1" parent="1">
          <mxGeometry x="497" y="743" width="150" height="40" as="geometry" />
        </mxCell>
        <mxCell id="wxSaQS_MVH6TNpJF-AeM-50" style="edgeStyle=orthogonalEdgeStyle;rounded=0;orthogonalLoop=1;jettySize=auto;html=1;exitX=0.5;exitY=1;exitDx=0;exitDy=0;entryX=0;entryY=0;entryDx=0;entryDy=0;curved=1;endArrow=none;startFill=0;" edge="1" parent="1" source="wxSaQS_MVH6TNpJF-AeM-51" target="wxSaQS_MVH6TNpJF-AeM-48">
          <mxGeometry relative="1" as="geometry" />
        </mxCell>
        <mxCell id="wxSaQS_MVH6TNpJF-AeM-51" value="" style="ellipse;whiteSpace=wrap;html=1;aspect=fixed;fillColor=#FFFFFF;" vertex="1" parent="1">
          <mxGeometry x="597" y="676" width="14" height="14" as="geometry" />
        </mxCell>
        <mxCell id="wxSaQS_MVH6TNpJF-AeM-52" value="Description" style="text;html=1;align=center;verticalAlign=middle;resizable=0;points=[];autosize=1;strokeColor=none;fillColor=none;" vertex="1" parent="1">
          <mxGeometry x="517" y="676" width="80" height="30" as="geometry" />
        </mxCell>
        <mxCell id="wxSaQS_MVH6TNpJF-AeM-53" value="" style="ellipse;whiteSpace=wrap;html=1;aspect=fixed;fillColor=#FFFFFF;" vertex="1" parent="1">
          <mxGeometry x="713" y="676" width="14" height="14" as="geometry" />
        </mxCell>
        <mxCell id="wxSaQS_MVH6TNpJF-AeM-54" value="Base_Cost" style="text;html=1;align=center;verticalAlign=middle;resizable=0;points=[];autosize=1;strokeColor=none;fillColor=none;" vertex="1" parent="1">
          <mxGeometry x="723" y="656" width="80" height="30" as="geometry" />
        </mxCell>
        <mxCell id="wxSaQS_MVH6TNpJF-AeM-55" value="Id_Class" style="text;html=1;align=center;verticalAlign=middle;resizable=0;points=[];autosize=1;strokeColor=none;fillColor=none;" vertex="1" parent="1">
          <mxGeometry x="683" y="860" width="70" height="30" as="geometry" />
        </mxCell>
        <mxCell id="wxSaQS_MVH6TNpJF-AeM-56" style="edgeStyle=orthogonalEdgeStyle;rounded=0;orthogonalLoop=1;jettySize=auto;html=1;exitX=0.5;exitY=1;exitDx=0;exitDy=0;entryX=0.5;entryY=0;entryDx=0;entryDy=0;endArrow=none;startFill=0;" edge="1" parent="1" source="wxSaQS_MVH6TNpJF-AeM-57" target="wxSaQS_MVH6TNpJF-AeM-29">
          <mxGeometry relative="1" as="geometry" />
        </mxCell>
        <mxCell id="wxSaQS_MVH6TNpJF-AeM-57" value="" style="ellipse;whiteSpace=wrap;html=1;aspect=fixed;fillColor=#FFFFFF;" vertex="1" parent="1">
          <mxGeometry x="751" y="792" width="14" height="14" as="geometry" />
        </mxCell>
        <mxCell id="wxSaQS_MVH6TNpJF-AeM-58" value="Name" style="text;html=1;align=center;verticalAlign=middle;resizable=0;points=[];autosize=1;strokeColor=none;fillColor=none;" vertex="1" parent="1">
          <mxGeometry x="691" y="762" width="60" height="30" as="geometry" />
        </mxCell>
        <mxCell id="wxSaQS_MVH6TNpJF-AeM-59" value="Id_Organization" style="text;html=1;align=center;verticalAlign=middle;resizable=0;points=[];autosize=1;strokeColor=none;fillColor=none;" vertex="1" parent="1">
          <mxGeometry x="748" y="967" width="110" height="30" as="geometry" />
        </mxCell>
        <mxCell id="wxSaQS_MVH6TNpJF-AeM-60" style="edgeStyle=orthogonalEdgeStyle;rounded=0;orthogonalLoop=1;jettySize=auto;html=1;exitX=1;exitY=0.5;exitDx=0;exitDy=0;entryX=0;entryY=0.5;entryDx=0;entryDy=0;endArrow=none;startFill=0;" edge="1" parent="1" source="wxSaQS_MVH6TNpJF-AeM-61" target="wxSaQS_MVH6TNpJF-AeM-85">
          <mxGeometry relative="1" as="geometry" />
        </mxCell>
        <mxCell id="wxSaQS_MVH6TNpJF-AeM-61" value="" style="ellipse;whiteSpace=wrap;html=1;aspect=fixed;fillColor=#FFFFFF;" vertex="1" parent="1">
          <mxGeometry x="1033" y="986" width="14" height="14" as="geometry" />
        </mxCell>
        <mxCell id="wxSaQS_MVH6TNpJF-AeM-62" value="" style="ellipse;whiteSpace=wrap;html=1;aspect=fixed;fillColor=#FFFFFF;" vertex="1" parent="1">
          <mxGeometry x="833" y="958" width="14" height="14" as="geometry" />
        </mxCell>
        <mxCell id="wxSaQS_MVH6TNpJF-AeM-63" value="" style="ellipse;whiteSpace=wrap;html=1;aspect=fixed;fillColor=#FFFFFF;" vertex="1" parent="1">
          <mxGeometry x="870" y="1062" width="14" height="14" as="geometry" />
        </mxCell>
        <mxCell id="wxSaQS_MVH6TNpJF-AeM-64" value="" style="ellipse;whiteSpace=wrap;html=1;aspect=fixed;fillColor=#FFFFFF;" vertex="1" parent="1">
          <mxGeometry x="833" y="1062" width="14" height="14" as="geometry" />
        </mxCell>
        <mxCell id="wxSaQS_MVH6TNpJF-AeM-65" value="" style="ellipse;whiteSpace=wrap;html=1;aspect=fixed;fillColor=#FFFFFF;" vertex="1" parent="1">
          <mxGeometry x="933" y="1052" width="14" height="14" as="geometry" />
        </mxCell>
        <mxCell id="wxSaQS_MVH6TNpJF-AeM-66" value="Name" style="text;html=1;align=center;verticalAlign=middle;resizable=0;points=[];autosize=1;strokeColor=none;fillColor=none;" vertex="1" parent="1">
          <mxGeometry x="783" y="1052" width="60" height="30" as="geometry" />
        </mxCell>
        <mxCell id="wxSaQS_MVH6TNpJF-AeM-67" value="Address" style="text;strokeColor=none;align=center;fillColor=none;html=1;verticalAlign=middle;whiteSpace=wrap;rounded=0;" vertex="1" parent="1">
          <mxGeometry x="847" y="1066" width="60" height="30" as="geometry" />
        </mxCell>
        <mxCell id="wxSaQS_MVH6TNpJF-AeM-68" style="edgeStyle=orthogonalEdgeStyle;rounded=0;orthogonalLoop=1;jettySize=auto;html=1;exitX=1;exitY=1;exitDx=0;exitDy=0;entryX=0.5;entryY=0;entryDx=0;entryDy=0;curved=1;endArrow=none;startFill=0;" edge="1" parent="1" source="wxSaQS_MVH6TNpJF-AeM-37" target="wxSaQS_MVH6TNpJF-AeM-63">
          <mxGeometry relative="1" as="geometry">
            <mxPoint x="900" y="1000" as="sourcePoint" />
            <mxPoint x="877" y="1062" as="targetPoint" />
            <Array as="points">
              <mxPoint x="868" y="1000" />
              <mxPoint x="878" y="1000" />
              <mxPoint x="878" y="1062" />
            </Array>
          </mxGeometry>
        </mxCell>
        <mxCell id="wxSaQS_MVH6TNpJF-AeM-69" style="edgeStyle=orthogonalEdgeStyle;rounded=0;orthogonalLoop=1;jettySize=auto;html=1;exitX=0.934;exitY=0.725;exitDx=0;exitDy=0;curved=1;endArrow=none;startFill=0;exitPerimeter=0;" edge="1" parent="1" source="wxSaQS_MVH6TNpJF-AeM-37" target="wxSaQS_MVH6TNpJF-AeM-65">
          <mxGeometry relative="1" as="geometry">
            <mxPoint x="878" y="1008" as="sourcePoint" />
            <mxPoint x="887" y="1072" as="targetPoint" />
            <Array as="points">
              <mxPoint x="883" y="996" />
              <mxPoint x="883" y="1002" />
              <mxPoint x="893" y="1002" />
              <mxPoint x="893" y="1059" />
            </Array>
          </mxGeometry>
        </mxCell>
        <mxCell id="wxSaQS_MVH6TNpJF-AeM-70" value="Zip_Code" style="text;html=1;align=center;verticalAlign=middle;resizable=0;points=[];autosize=1;strokeColor=none;fillColor=none;" vertex="1" parent="1">
          <mxGeometry x="893" y="1060" width="80" height="30" as="geometry" />
        </mxCell>
        <mxCell id="wxSaQS_MVH6TNpJF-AeM-71" value="Lat" style="text;html=1;align=center;verticalAlign=middle;resizable=0;points=[];autosize=1;strokeColor=none;fillColor=none;" vertex="1" parent="1">
          <mxGeometry x="830" y="937" width="40" height="30" as="geometry" />
        </mxCell>
        <mxCell id="wxSaQS_MVH6TNpJF-AeM-72" value="" style="ellipse;whiteSpace=wrap;html=1;aspect=fixed;fillColor=#FFFFFF;" vertex="1" parent="1">
          <mxGeometry x="869" y="950" width="14" height="14" as="geometry" />
        </mxCell>
        <mxCell id="wxSaQS_MVH6TNpJF-AeM-73" value="Lon" style="text;html=1;align=center;verticalAlign=middle;resizable=0;points=[];autosize=1;strokeColor=none;fillColor=none;" vertex="1" parent="1">
          <mxGeometry x="856" y="928" width="40" height="30" as="geometry" />
        </mxCell>
        <mxCell id="wxSaQS_MVH6TNpJF-AeM-74" value="Phone" style="text;html=1;align=center;verticalAlign=middle;resizable=0;points=[];autosize=1;strokeColor=none;fillColor=none;" vertex="1" parent="1">
          <mxGeometry x="887" y="928" width="60" height="30" as="geometry" />
        </mxCell>
        <mxCell id="wxSaQS_MVH6TNpJF-AeM-75" value="" style="ellipse;whiteSpace=wrap;html=1;aspect=fixed;fillColor=#FFFFFF;" vertex="1" parent="1">
          <mxGeometry x="933" y="952" width="14" height="14" as="geometry" />
        </mxCell>
        <mxCell id="wxSaQS_MVH6TNpJF-AeM-76" value="" style="ellipse;whiteSpace=wrap;html=1;aspect=fixed;fillColor=#FFFFFF;" vertex="1" parent="1">
          <mxGeometry x="933" y="1008" width="14" height="14" as="geometry" />
        </mxCell>
        <mxCell id="wxSaQS_MVH6TNpJF-AeM-77" value="Revenue" style="text;html=1;align=center;verticalAlign=middle;resizable=0;points=[];autosize=1;strokeColor=none;fillColor=none;" vertex="1" parent="1">
          <mxGeometry x="933" y="934" width="70" height="30" as="geometry" />
        </mxCell>
        <mxCell id="wxSaQS_MVH6TNpJF-AeM-78" value="Utilization" style="text;html=1;align=center;verticalAlign=middle;resizable=0;points=[];autosize=1;strokeColor=none;fillColor=none;" vertex="1" parent="1">
          <mxGeometry x="903" y="1014" width="80" height="30" as="geometry" />
        </mxCell>
        <mxCell id="wxSaQS_MVH6TNpJF-AeM-79" value="Id_City" style="text;html=1;align=center;verticalAlign=middle;resizable=0;points=[];autosize=1;strokeColor=none;fillColor=none;" vertex="1" parent="1">
          <mxGeometry x="1033" y="992" width="60" height="30" as="geometry" />
        </mxCell>
        <mxCell id="wxSaQS_MVH6TNpJF-AeM-80" style="edgeStyle=orthogonalEdgeStyle;rounded=0;orthogonalLoop=1;jettySize=auto;html=1;entryX=0.5;entryY=1;entryDx=0;entryDy=0;endArrow=none;startFill=0;" edge="1" parent="1" source="wxSaQS_MVH6TNpJF-AeM-81" target="wxSaQS_MVH6TNpJF-AeM-61">
          <mxGeometry relative="1" as="geometry" />
        </mxCell>
        <mxCell id="wxSaQS_MVH6TNpJF-AeM-81" value="" style="ellipse;whiteSpace=wrap;html=1;aspect=fixed;fillColor=#FFFFFF;" vertex="1" parent="1">
          <mxGeometry x="1033" y="1022" width="14" height="14" as="geometry" />
        </mxCell>
        <mxCell id="wxSaQS_MVH6TNpJF-AeM-82" value="Name" style="text;html=1;align=center;verticalAlign=middle;resizable=0;points=[];autosize=1;strokeColor=none;fillColor=none;" vertex="1" parent="1">
          <mxGeometry x="1010" y="1030" width="60" height="30" as="geometry" />
        </mxCell>
        <mxCell id="wxSaQS_MVH6TNpJF-AeM-83" style="edgeStyle=orthogonalEdgeStyle;rounded=0;orthogonalLoop=1;jettySize=auto;html=1;exitX=0.5;exitY=1;exitDx=0;exitDy=0;entryX=0.5;entryY=0;entryDx=0;entryDy=0;endArrow=none;startFill=0;" edge="1" parent="1" source="wxSaQS_MVH6TNpJF-AeM-85" target="wxSaQS_MVH6TNpJF-AeM-87">
          <mxGeometry relative="1" as="geometry" />
        </mxCell>
        <mxCell id="wxSaQS_MVH6TNpJF-AeM-84" style="edgeStyle=orthogonalEdgeStyle;rounded=0;orthogonalLoop=1;jettySize=auto;html=1;exitX=1;exitY=0.5;exitDx=0;exitDy=0;entryX=0;entryY=0.5;entryDx=0;entryDy=0;endArrow=none;startFill=0;" edge="1" parent="1" source="wxSaQS_MVH6TNpJF-AeM-85" target="wxSaQS_MVH6TNpJF-AeM-90">
          <mxGeometry relative="1" as="geometry" />
        </mxCell>
        <mxCell id="wxSaQS_MVH6TNpJF-AeM-85" value="" style="ellipse;whiteSpace=wrap;html=1;aspect=fixed;fillColor=#FFFFFF;" vertex="1" parent="1">
          <mxGeometry x="1113" y="986" width="14" height="14" as="geometry" />
        </mxCell>
        <mxCell id="wxSaQS_MVH6TNpJF-AeM-86" value="Id_County" style="text;html=1;align=center;verticalAlign=middle;resizable=0;points=[];autosize=1;strokeColor=none;fillColor=none;" vertex="1" parent="1">
          <mxGeometry x="1080" y="958" width="80" height="30" as="geometry" />
        </mxCell>
        <mxCell id="wxSaQS_MVH6TNpJF-AeM-87" value="" style="ellipse;whiteSpace=wrap;html=1;aspect=fixed;fillColor=#FFFFFF;" vertex="1" parent="1">
          <mxGeometry x="1113" y="1022" width="14" height="14" as="geometry" />
        </mxCell>
        <mxCell id="wxSaQS_MVH6TNpJF-AeM-88" value="Name" style="text;html=1;align=center;verticalAlign=middle;resizable=0;points=[];autosize=1;strokeColor=none;fillColor=none;" vertex="1" parent="1">
          <mxGeometry x="1090" y="1032" width="60" height="30" as="geometry" />
        </mxCell>
        <mxCell id="wxSaQS_MVH6TNpJF-AeM-89" style="edgeStyle=orthogonalEdgeStyle;rounded=0;orthogonalLoop=1;jettySize=auto;html=1;exitX=0.5;exitY=1;exitDx=0;exitDy=0;entryX=0.5;entryY=0;entryDx=0;entryDy=0;endArrow=none;startFill=0;" edge="1" parent="1" source="wxSaQS_MVH6TNpJF-AeM-90" target="wxSaQS_MVH6TNpJF-AeM-92">
          <mxGeometry relative="1" as="geometry" />
        </mxCell>
        <mxCell id="wxSaQS_MVH6TNpJF-AeM-90" value="" style="ellipse;whiteSpace=wrap;html=1;aspect=fixed;fillColor=#FFFFFF;" vertex="1" parent="1">
          <mxGeometry x="1183" y="986" width="14" height="14" as="geometry" />
        </mxCell>
        <mxCell id="wxSaQS_MVH6TNpJF-AeM-91" value="Id_State" style="text;html=1;align=center;verticalAlign=middle;resizable=0;points=[];autosize=1;strokeColor=none;fillColor=none;" vertex="1" parent="1">
          <mxGeometry x="1155" y="958" width="70" height="30" as="geometry" />
        </mxCell>
        <mxCell id="wxSaQS_MVH6TNpJF-AeM-92" value="" style="ellipse;whiteSpace=wrap;html=1;aspect=fixed;fillColor=#FFFFFF;" vertex="1" parent="1">
          <mxGeometry x="1183" y="1022" width="14" height="14" as="geometry" />
        </mxCell>
        <mxCell id="wxSaQS_MVH6TNpJF-AeM-93" value="Name" style="text;html=1;align=center;verticalAlign=middle;resizable=0;points=[];autosize=1;strokeColor=none;fillColor=none;" vertex="1" parent="1">
          <mxGeometry x="1160" y="1030" width="60" height="30" as="geometry" />
        </mxCell>
        <mxCell id="wxSaQS_MVH6TNpJF-AeM-94" value="Id_Provider" style="text;html=1;align=center;verticalAlign=middle;resizable=0;points=[];autosize=1;strokeColor=none;fillColor=none;" vertex="1" parent="1">
          <mxGeometry x="607" y="1202" width="80" height="30" as="geometry" />
        </mxCell>
        <mxCell id="wxSaQS_MVH6TNpJF-AeM-95" style="edgeStyle=orthogonalEdgeStyle;rounded=0;orthogonalLoop=1;jettySize=auto;html=1;exitX=0.5;exitY=0;exitDx=0;exitDy=0;entryX=0.5;entryY=1;entryDx=0;entryDy=0;curved=1;endArrow=none;startFill=0;" edge="1" parent="1" source="wxSaQS_MVH6TNpJF-AeM-96" target="wxSaQS_MVH6TNpJF-AeM-46">
          <mxGeometry relative="1" as="geometry" />
        </mxCell>
        <mxCell id="wxSaQS_MVH6TNpJF-AeM-96" value="" style="ellipse;whiteSpace=wrap;html=1;aspect=fixed;fillColor=#FFFFFF;" vertex="1" parent="1">
          <mxGeometry x="650" y="1298" width="14" height="14" as="geometry" />
        </mxCell>
        <mxCell id="wxSaQS_MVH6TNpJF-AeM-97" value="" style="ellipse;whiteSpace=wrap;html=1;aspect=fixed;fillColor=#FFFFFF;" vertex="1" parent="1">
          <mxGeometry x="593" y="1284" width="14" height="14" as="geometry" />
        </mxCell>
        <mxCell id="wxSaQS_MVH6TNpJF-AeM-98" value="" style="ellipse;whiteSpace=wrap;html=1;aspect=fixed;fillColor=#FFFFFF;" vertex="1" parent="1">
          <mxGeometry x="619" y="1298" width="14" height="14" as="geometry" />
        </mxCell>
        <mxCell id="wxSaQS_MVH6TNpJF-AeM-99" value="" style="ellipse;whiteSpace=wrap;html=1;aspect=fixed;fillColor=#FFFFFF;" vertex="1" parent="1">
          <mxGeometry x="577" y="1262" width="14" height="14" as="geometry" />
        </mxCell>
        <mxCell id="wxSaQS_MVH6TNpJF-AeM-100" value="First_Name" style="text;html=1;align=center;verticalAlign=middle;resizable=0;points=[];autosize=1;strokeColor=none;fillColor=none;" vertex="1" parent="1">
          <mxGeometry x="497" y="1254" width="90" height="30" as="geometry" />
        </mxCell>
        <mxCell id="wxSaQS_MVH6TNpJF-AeM-101" value="Last_Name" style="text;html=1;align=center;verticalAlign=middle;resizable=0;points=[];autosize=1;strokeColor=none;fillColor=none;" vertex="1" parent="1">
          <mxGeometry x="517" y="1276" width="80" height="30" as="geometry" />
        </mxCell>
        <mxCell id="wxSaQS_MVH6TNpJF-AeM-102" value="Gender" style="text;html=1;align=center;verticalAlign=middle;resizable=0;points=[];autosize=1;strokeColor=none;fillColor=none;" vertex="1" parent="1">
          <mxGeometry x="577" y="1306" width="60" height="30" as="geometry" />
        </mxCell>
        <mxCell id="wxSaQS_MVH6TNpJF-AeM-103" value="Address" style="text;html=1;align=center;verticalAlign=middle;resizable=0;points=[];autosize=1;strokeColor=none;fillColor=none;" vertex="1" parent="1">
          <mxGeometry x="628" y="1310" width="70" height="30" as="geometry" />
        </mxCell>
        <mxCell id="wxSaQS_MVH6TNpJF-AeM-104" value="Zip_Code" style="text;html=1;align=center;verticalAlign=middle;resizable=0;points=[];autosize=1;strokeColor=none;fillColor=none;" vertex="1" parent="1">
          <mxGeometry x="694" y="1298" width="80" height="30" as="geometry" />
        </mxCell>
        <mxCell id="wxSaQS_MVH6TNpJF-AeM-105" value="" style="ellipse;whiteSpace=wrap;html=1;aspect=fixed;fillColor=#FFFFFF;" vertex="1" parent="1">
          <mxGeometry x="713" y="1292" width="14" height="14" as="geometry" />
        </mxCell>
        <mxCell id="wxSaQS_MVH6TNpJF-AeM-106" value="Lon" style="text;html=1;align=center;verticalAlign=middle;resizable=0;points=[];autosize=1;strokeColor=none;fillColor=none;" vertex="1" parent="1">
          <mxGeometry x="788" y="1262" width="40" height="30" as="geometry" />
        </mxCell>
        <mxCell id="wxSaQS_MVH6TNpJF-AeM-107" value="Lat" style="text;html=1;align=center;verticalAlign=middle;resizable=0;points=[];autosize=1;strokeColor=none;fillColor=none;" vertex="1" parent="1">
          <mxGeometry x="779" y="1284" width="40" height="30" as="geometry" />
        </mxCell>
        <mxCell id="wxSaQS_MVH6TNpJF-AeM-108" value="" style="ellipse;whiteSpace=wrap;html=1;aspect=fixed;fillColor=#FFFFFF;" vertex="1" parent="1">
          <mxGeometry x="774" y="1292" width="14" height="14" as="geometry" />
        </mxCell>
        <mxCell id="wxSaQS_MVH6TNpJF-AeM-109" value="" style="ellipse;whiteSpace=wrap;html=1;aspect=fixed;fillColor=#FFFFFF;" vertex="1" parent="1">
          <mxGeometry x="779" y="1270" width="14" height="14" as="geometry" />
        </mxCell>
        <mxCell id="wxSaQS_MVH6TNpJF-AeM-110" style="edgeStyle=orthogonalEdgeStyle;rounded=0;orthogonalLoop=1;jettySize=auto;html=1;exitX=1;exitY=0.5;exitDx=0;exitDy=0;entryX=0;entryY=0.5;entryDx=0;entryDy=0;endArrow=none;startFill=0;curved=1;" edge="1" parent="1" source="wxSaQS_MVH6TNpJF-AeM-46" target="wxSaQS_MVH6TNpJF-AeM-109">
          <mxGeometry relative="1" as="geometry" />
        </mxCell>
        <mxCell id="wxSaQS_MVH6TNpJF-AeM-111" style="edgeStyle=orthogonalEdgeStyle;rounded=0;orthogonalLoop=1;jettySize=auto;html=1;exitX=0;exitY=0;exitDx=0;exitDy=0;entryX=0.981;entryY=0.726;entryDx=0;entryDy=0;entryPerimeter=0;endArrow=none;startFill=0;curved=1;" edge="1" parent="1" source="wxSaQS_MVH6TNpJF-AeM-108" target="wxSaQS_MVH6TNpJF-AeM-46">
          <mxGeometry relative="1" as="geometry" />
        </mxCell>
        <mxCell id="wxSaQS_MVH6TNpJF-AeM-112" value="" style="ellipse;whiteSpace=wrap;html=1;aspect=fixed;fillColor=#FFFFFF;" vertex="1" parent="1">
          <mxGeometry x="779" y="1246" width="14" height="14" as="geometry" />
        </mxCell>
        <mxCell id="wxSaQS_MVH6TNpJF-AeM-113" value="Utilization" style="text;html=1;align=center;verticalAlign=middle;resizable=0;points=[];autosize=1;strokeColor=none;fillColor=none;" vertex="1" parent="1">
          <mxGeometry x="783" y="1238" width="80" height="30" as="geometry" />
        </mxCell>
        <mxCell id="wxSaQS_MVH6TNpJF-AeM-114" style="edgeStyle=orthogonalEdgeStyle;rounded=0;orthogonalLoop=1;jettySize=auto;html=1;exitX=0.924;exitY=0.747;exitDx=0;exitDy=0;entryX=0.5;entryY=0;entryDx=0;entryDy=0;curved=1;exitPerimeter=0;" edge="1" parent="1" source="wxSaQS_MVH6TNpJF-AeM-130" target="wxSaQS_MVH6TNpJF-AeM-61">
          <mxGeometry relative="1" as="geometry" />
        </mxCell>
        <mxCell id="wxSaQS_MVH6TNpJF-AeM-115" style="edgeStyle=orthogonalEdgeStyle;rounded=0;orthogonalLoop=1;jettySize=auto;html=1;exitX=0.355;exitY=0.017;exitDx=0;exitDy=0;entryX=0.5;entryY=1;entryDx=0;entryDy=0;curved=1;endArrow=none;startFill=0;exitPerimeter=0;" edge="1" parent="1" source="wxSaQS_MVH6TNpJF-AeM-130" target="wxSaQS_MVH6TNpJF-AeM-135">
          <mxGeometry relative="1" as="geometry" />
        </mxCell>
        <mxCell id="wxSaQS_MVH6TNpJF-AeM-116" style="edgeStyle=orthogonalEdgeStyle;rounded=0;orthogonalLoop=1;jettySize=auto;html=1;exitX=0.5;exitY=0;exitDx=0;exitDy=0;entryX=0.5;entryY=1;entryDx=0;entryDy=0;curved=1;endArrow=none;startFill=0;" edge="1" parent="1" source="wxSaQS_MVH6TNpJF-AeM-130" target="wxSaQS_MVH6TNpJF-AeM-133">
          <mxGeometry relative="1" as="geometry" />
        </mxCell>
        <mxCell id="wxSaQS_MVH6TNpJF-AeM-117" style="edgeStyle=orthogonalEdgeStyle;rounded=0;orthogonalLoop=1;jettySize=auto;html=1;exitX=0.673;exitY=0.055;exitDx=0;exitDy=0;entryX=0.5;entryY=1;entryDx=0;entryDy=0;curved=1;exitPerimeter=0;endArrow=none;startFill=0;" edge="1" parent="1" source="wxSaQS_MVH6TNpJF-AeM-130" target="wxSaQS_MVH6TNpJF-AeM-134">
          <mxGeometry relative="1" as="geometry">
            <mxPoint x="993" y="542" as="targetPoint" />
          </mxGeometry>
        </mxCell>
        <mxCell id="wxSaQS_MVH6TNpJF-AeM-118" style="edgeStyle=orthogonalEdgeStyle;rounded=0;orthogonalLoop=1;jettySize=auto;html=1;exitX=0.651;exitY=0.036;exitDx=0;exitDy=0;entryX=0.5;entryY=1;entryDx=0;entryDy=0;curved=1;exitPerimeter=0;endArrow=none;startFill=0;" edge="1" parent="1" source="wxSaQS_MVH6TNpJF-AeM-130" target="wxSaQS_MVH6TNpJF-AeM-132">
          <mxGeometry relative="1" as="geometry">
            <mxPoint x="1073" y="492" as="targetPoint" />
            <Array as="points">
              <mxPoint x="983" y="752" />
              <mxPoint x="983" y="592" />
              <mxPoint x="1073" y="592" />
              <mxPoint x="1073" y="432" />
            </Array>
          </mxGeometry>
        </mxCell>
        <mxCell id="wxSaQS_MVH6TNpJF-AeM-119" style="edgeStyle=orthogonalEdgeStyle;rounded=0;orthogonalLoop=1;jettySize=auto;html=1;exitX=0.978;exitY=0.364;exitDx=0;exitDy=0;entryX=0.5;entryY=1;entryDx=0;entryDy=0;exitPerimeter=0;curved=1;endArrow=none;startFill=0;" edge="1" parent="1" source="wxSaQS_MVH6TNpJF-AeM-130" target="wxSaQS_MVH6TNpJF-AeM-158">
          <mxGeometry relative="1" as="geometry">
            <mxPoint x="1173.655737704918" y="758.9508196721312" as="targetPoint" />
            <Array as="points">
              <mxPoint x="1170" y="757" />
            </Array>
          </mxGeometry>
        </mxCell>
        <mxCell id="wxSaQS_MVH6TNpJF-AeM-120" style="edgeStyle=orthogonalEdgeStyle;rounded=0;orthogonalLoop=1;jettySize=auto;html=1;exitX=1;exitY=0.5;exitDx=0;exitDy=0;entryX=0;entryY=0.5;entryDx=0;entryDy=0;curved=1;endArrow=none;startFill=0;" edge="1" parent="1" source="wxSaQS_MVH6TNpJF-AeM-130" target="wxSaQS_MVH6TNpJF-AeM-159">
          <mxGeometry relative="1" as="geometry">
            <Array as="points">
              <mxPoint x="1153" y="759" />
              <mxPoint x="1153" y="699" />
            </Array>
          </mxGeometry>
        </mxCell>
        <mxCell id="wxSaQS_MVH6TNpJF-AeM-121" style="edgeStyle=orthogonalEdgeStyle;rounded=0;orthogonalLoop=1;jettySize=auto;html=1;exitX=1;exitY=0.5;exitDx=0;exitDy=0;entryX=0;entryY=0.5;entryDx=0;entryDy=0;curved=1;endArrow=none;startFill=0;" edge="1" parent="1" source="wxSaQS_MVH6TNpJF-AeM-130" target="wxSaQS_MVH6TNpJF-AeM-160">
          <mxGeometry relative="1" as="geometry">
            <Array as="points">
              <mxPoint x="1133" y="759" />
              <mxPoint x="1133" y="745" />
            </Array>
          </mxGeometry>
        </mxCell>
        <mxCell id="wxSaQS_MVH6TNpJF-AeM-122" style="edgeStyle=orthogonalEdgeStyle;rounded=0;orthogonalLoop=1;jettySize=auto;html=1;exitX=0.976;exitY=0.669;exitDx=0;exitDy=0;entryX=0;entryY=0.5;entryDx=0;entryDy=0;curved=1;exitPerimeter=0;endArrow=none;startFill=0;" edge="1" parent="1" source="wxSaQS_MVH6TNpJF-AeM-130" target="wxSaQS_MVH6TNpJF-AeM-161">
          <mxGeometry relative="1" as="geometry" />
        </mxCell>
        <mxCell id="wxSaQS_MVH6TNpJF-AeM-123" style="edgeStyle=orthogonalEdgeStyle;rounded=0;orthogonalLoop=1;jettySize=auto;html=1;exitX=1.013;exitY=0.249;exitDx=0;exitDy=0;entryX=0.5;entryY=0;entryDx=0;entryDy=0;curved=1;endArrow=none;startFill=0;exitPerimeter=0;" edge="1" parent="1" source="wxSaQS_MVH6TNpJF-AeM-131" target="wxSaQS_MVH6TNpJF-AeM-169">
          <mxGeometry relative="1" as="geometry">
            <Array as="points">
              <mxPoint x="930" y="766" />
              <mxPoint x="930" y="799" />
              <mxPoint x="903" y="799" />
            </Array>
          </mxGeometry>
        </mxCell>
        <mxCell id="wxSaQS_MVH6TNpJF-AeM-124" style="edgeStyle=orthogonalEdgeStyle;rounded=0;orthogonalLoop=1;jettySize=auto;html=1;exitX=0;exitY=1;exitDx=0;exitDy=0;entryX=0.5;entryY=0;entryDx=0;entryDy=0;curved=1;endArrow=none;startFill=0;" edge="1" parent="1" source="wxSaQS_MVH6TNpJF-AeM-130" target="wxSaQS_MVH6TNpJF-AeM-168">
          <mxGeometry relative="1" as="geometry">
            <Array as="points">
              <mxPoint x="925" y="782" />
              <mxPoint x="883" y="782" />
            </Array>
          </mxGeometry>
        </mxCell>
        <mxCell id="wxSaQS_MVH6TNpJF-AeM-125" style="edgeStyle=orthogonalEdgeStyle;rounded=0;orthogonalLoop=1;jettySize=auto;html=1;exitX=0.7;exitY=0.961;exitDx=0;exitDy=0;entryX=0.5;entryY=0;entryDx=0;entryDy=0;exitPerimeter=0;curved=1;endArrow=none;startFill=0;" edge="1" parent="1" source="wxSaQS_MVH6TNpJF-AeM-130" target="wxSaQS_MVH6TNpJF-AeM-171">
          <mxGeometry relative="1" as="geometry">
            <Array as="points">
              <mxPoint x="933" y="799" />
              <mxPoint x="940" y="799" />
            </Array>
          </mxGeometry>
        </mxCell>
        <mxCell id="wxSaQS_MVH6TNpJF-AeM-126" style="edgeStyle=orthogonalEdgeStyle;rounded=0;orthogonalLoop=1;jettySize=auto;html=1;exitX=0.797;exitY=0.928;exitDx=0;exitDy=0;entryX=0.5;entryY=0;entryDx=0;entryDy=0;curved=1;endArrow=none;startFill=0;exitPerimeter=0;" edge="1" parent="1">
          <mxGeometry relative="1" as="geometry">
            <mxPoint x="932.998" y="764.992" as="sourcePoint" />
            <mxPoint x="962.84" y="875.9999999999999" as="targetPoint" />
          </mxGeometry>
        </mxCell>
        <mxCell id="wxSaQS_MVH6TNpJF-AeM-127" style="edgeStyle=orthogonalEdgeStyle;rounded=0;orthogonalLoop=1;jettySize=auto;html=1;exitX=1;exitY=1;exitDx=0;exitDy=0;entryX=0.5;entryY=0;entryDx=0;entryDy=0;curved=1;endArrow=none;startFill=0;" edge="1" parent="1" source="wxSaQS_MVH6TNpJF-AeM-130" target="wxSaQS_MVH6TNpJF-AeM-173">
          <mxGeometry relative="1" as="geometry" />
        </mxCell>
        <mxCell id="wxSaQS_MVH6TNpJF-AeM-128" style="edgeStyle=orthogonalEdgeStyle;rounded=0;orthogonalLoop=1;jettySize=auto;html=1;exitX=1;exitY=0.5;exitDx=0;exitDy=0;entryX=0;entryY=0.5;entryDx=0;entryDy=0;curved=1;endArrow=none;startFill=0;" edge="1" parent="1" source="wxSaQS_MVH6TNpJF-AeM-130" target="wxSaQS_MVH6TNpJF-AeM-177">
          <mxGeometry relative="1" as="geometry" />
        </mxCell>
        <mxCell id="wxSaQS_MVH6TNpJF-AeM-129" style="edgeStyle=orthogonalEdgeStyle;rounded=0;orthogonalLoop=1;jettySize=auto;html=1;exitX=1;exitY=0.5;exitDx=0;exitDy=0;entryX=0;entryY=0.5;entryDx=0;entryDy=0;curved=1;endArrow=none;startFill=0;" edge="1" parent="1" source="wxSaQS_MVH6TNpJF-AeM-130" target="wxSaQS_MVH6TNpJF-AeM-180">
          <mxGeometry relative="1" as="geometry">
            <mxPoint x="1073" y="862" as="targetPoint" />
          </mxGeometry>
        </mxCell>
        <mxCell id="wxSaQS_MVH6TNpJF-AeM-130" value="" style="ellipse;whiteSpace=wrap;html=1;aspect=fixed;fillColor=#FFFFFF;" vertex="1" parent="1">
          <mxGeometry x="923" y="752" width="14" height="14" as="geometry" />
        </mxCell>
        <mxCell id="wxSaQS_MVH6TNpJF-AeM-131" value="Id_Patient" style="text;html=1;align=center;verticalAlign=middle;resizable=0;points=[];autosize=1;strokeColor=none;fillColor=none;" vertex="1" parent="1">
          <mxGeometry x="847" y="758" width="80" height="30" as="geometry" />
        </mxCell>
        <mxCell id="wxSaQS_MVH6TNpJF-AeM-132" value="" style="ellipse;whiteSpace=wrap;html=1;aspect=fixed;fillColor=#FFFFFF;" vertex="1" parent="1">
          <mxGeometry x="1056" y="418" width="14" height="14" as="geometry" />
        </mxCell>
        <mxCell id="wxSaQS_MVH6TNpJF-AeM-133" value="" style="ellipse;whiteSpace=wrap;html=1;aspect=fixed;fillColor=#FFFFFF;" vertex="1" parent="1">
          <mxGeometry x="933" y="522" width="14" height="14" as="geometry" />
        </mxCell>
        <mxCell id="wxSaQS_MVH6TNpJF-AeM-134" value="" style="ellipse;whiteSpace=wrap;html=1;aspect=fixed;fillColor=#FFFFFF;" vertex="1" parent="1">
          <mxGeometry x="989" y="522" width="14" height="14" as="geometry" />
        </mxCell>
        <mxCell id="wxSaQS_MVH6TNpJF-AeM-135" value="" style="ellipse;whiteSpace=wrap;html=1;aspect=fixed;fillColor=#FFFFFF;" vertex="1" parent="1">
          <mxGeometry x="893" y="522" width="14" height="14" as="geometry" />
        </mxCell>
        <mxCell id="wxSaQS_MVH6TNpJF-AeM-136" value="Last_Name" style="text;html=1;align=center;verticalAlign=middle;resizable=0;points=[];autosize=1;strokeColor=none;fillColor=none;" vertex="1" parent="1">
          <mxGeometry x="837" y="492" width="80" height="30" as="geometry" />
        </mxCell>
        <mxCell id="wxSaQS_MVH6TNpJF-AeM-137" value="Gender" style="text;html=1;align=center;verticalAlign=middle;resizable=0;points=[];autosize=1;strokeColor=none;fillColor=none;" vertex="1" parent="1">
          <mxGeometry x="987" y="492" width="60" height="30" as="geometry" />
        </mxCell>
        <mxCell id="wxSaQS_MVH6TNpJF-AeM-138" value="First_Name" style="text;html=1;align=center;verticalAlign=middle;resizable=0;points=[];autosize=1;strokeColor=none;fillColor=none;" vertex="1" parent="1">
          <mxGeometry x="907" y="492" width="90" height="30" as="geometry" />
        </mxCell>
        <mxCell id="wxSaQS_MVH6TNpJF-AeM-139" value="" style="ellipse;whiteSpace=wrap;html=1;aspect=fixed;fillColor=#FFFFFF;" vertex="1" parent="1">
          <mxGeometry x="1150" y="418" width="14" height="14" as="geometry" />
        </mxCell>
        <mxCell id="wxSaQS_MVH6TNpJF-AeM-140" value="" style="ellipse;whiteSpace=wrap;html=1;aspect=fixed;fillColor=#FFFFFF;" vertex="1" parent="1">
          <mxGeometry x="1099" y="418" width="14" height="14" as="geometry" />
        </mxCell>
        <mxCell id="wxSaQS_MVH6TNpJF-AeM-141" value="" style="ellipse;whiteSpace=wrap;html=1;aspect=fixed;fillColor=#FFFFFF;" vertex="1" parent="1">
          <mxGeometry x="1193" y="418" width="14" height="14" as="geometry" />
        </mxCell>
        <mxCell id="wxSaQS_MVH6TNpJF-AeM-142" value="Birthdate" style="text;html=1;align=center;verticalAlign=middle;resizable=0;points=[];autosize=1;strokeColor=none;fillColor=none;" vertex="1" parent="1">
          <mxGeometry x="1003" y="392" width="70" height="30" as="geometry" />
        </mxCell>
        <mxCell id="wxSaQS_MVH6TNpJF-AeM-143" value="Deathdate" style="text;html=1;align=center;verticalAlign=middle;resizable=0;points=[];autosize=1;strokeColor=none;fillColor=none;" vertex="1" parent="1">
          <mxGeometry x="1066" y="392" width="80" height="30" as="geometry" />
        </mxCell>
        <mxCell id="wxSaQS_MVH6TNpJF-AeM-144" value="SSN" style="text;html=1;align=center;verticalAlign=middle;resizable=0;points=[];autosize=1;strokeColor=none;fillColor=none;" vertex="1" parent="1">
          <mxGeometry x="1133" y="392" width="50" height="30" as="geometry" />
        </mxCell>
        <mxCell id="wxSaQS_MVH6TNpJF-AeM-145" value="Drivers" style="text;html=1;align=center;verticalAlign=middle;resizable=0;points=[];autosize=1;strokeColor=none;fillColor=none;" vertex="1" parent="1">
          <mxGeometry x="1173" y="390" width="60" height="30" as="geometry" />
        </mxCell>
        <mxCell id="wxSaQS_MVH6TNpJF-AeM-146" style="edgeStyle=orthogonalEdgeStyle;rounded=0;orthogonalLoop=1;jettySize=auto;html=1;exitX=1;exitY=0;exitDx=0;exitDy=0;entryX=0.5;entryY=1;entryDx=0;entryDy=0;curved=1;endArrow=none;startFill=0;" edge="1" parent="1" source="wxSaQS_MVH6TNpJF-AeM-130" target="wxSaQS_MVH6TNpJF-AeM-140">
          <mxGeometry relative="1" as="geometry">
            <mxPoint x="1073" y="442" as="targetPoint" />
            <mxPoint x="944" y="763" as="sourcePoint" />
            <Array as="points">
              <mxPoint x="935" y="752" />
              <mxPoint x="993" y="752" />
              <mxPoint x="993" y="602" />
              <mxPoint x="1103" y="602" />
              <mxPoint x="1103" y="432" />
            </Array>
          </mxGeometry>
        </mxCell>
        <mxCell id="wxSaQS_MVH6TNpJF-AeM-147" style="edgeStyle=orthogonalEdgeStyle;rounded=0;orthogonalLoop=1;jettySize=auto;html=1;exitX=1;exitY=0;exitDx=0;exitDy=0;entryX=0.5;entryY=1;entryDx=0;entryDy=0;curved=1;endArrow=none;startFill=0;" edge="1" parent="1" source="wxSaQS_MVH6TNpJF-AeM-130" target="wxSaQS_MVH6TNpJF-AeM-139">
          <mxGeometry relative="1" as="geometry">
            <mxPoint x="1176" y="449" as="targetPoint" />
            <mxPoint x="1047" y="770" as="sourcePoint" />
            <Array as="points">
              <mxPoint x="1096" y="754" />
              <mxPoint x="1096" y="609" />
              <mxPoint x="1153" y="609" />
              <mxPoint x="1153" y="432" />
            </Array>
          </mxGeometry>
        </mxCell>
        <mxCell id="wxSaQS_MVH6TNpJF-AeM-148" style="edgeStyle=orthogonalEdgeStyle;rounded=0;orthogonalLoop=1;jettySize=auto;html=1;exitX=0.947;exitY=0.277;exitDx=0;exitDy=0;entryX=0.5;entryY=1;entryDx=0;entryDy=0;curved=1;endArrow=none;startFill=0;exitPerimeter=0;" edge="1" parent="1" source="wxSaQS_MVH6TNpJF-AeM-130" target="wxSaQS_MVH6TNpJF-AeM-141">
          <mxGeometry relative="1" as="geometry">
            <mxPoint x="1167" y="442" as="targetPoint" />
            <mxPoint x="945" y="764" as="sourcePoint" />
            <Array as="points">
              <mxPoint x="936" y="752" />
              <mxPoint x="1103" y="752" />
              <mxPoint x="1103" y="619" />
              <mxPoint x="1163" y="619" />
              <mxPoint x="1163" y="442" />
              <mxPoint x="1200" y="442" />
            </Array>
          </mxGeometry>
        </mxCell>
        <mxCell id="wxSaQS_MVH6TNpJF-AeM-149" style="edgeStyle=orthogonalEdgeStyle;rounded=0;orthogonalLoop=1;jettySize=auto;html=1;exitX=0.5;exitY=1;exitDx=0;exitDy=0;entryX=0.234;entryY=0.075;entryDx=0;entryDy=0;endArrow=none;startFill=0;curved=1;entryPerimeter=0;" edge="1" parent="1" source="wxSaQS_MVH6TNpJF-AeM-150" target="wxSaQS_MVH6TNpJF-AeM-130">
          <mxGeometry relative="1" as="geometry">
            <Array as="points">
              <mxPoint x="862" y="654" />
              <mxPoint x="903" y="654" />
              <mxPoint x="903" y="742" />
              <mxPoint x="926" y="742" />
            </Array>
          </mxGeometry>
        </mxCell>
        <mxCell id="wxSaQS_MVH6TNpJF-AeM-150" value="" style="ellipse;whiteSpace=wrap;html=1;aspect=fixed;fillColor=#FFFFFF;" vertex="1" parent="1">
          <mxGeometry x="855" y="542" width="14" height="14" as="geometry" />
        </mxCell>
        <mxCell id="wxSaQS_MVH6TNpJF-AeM-151" style="edgeStyle=orthogonalEdgeStyle;rounded=0;orthogonalLoop=1;jettySize=auto;html=1;exitX=1;exitY=1;exitDx=0;exitDy=0;entryX=0;entryY=0;entryDx=0;entryDy=0;curved=1;endArrow=none;startFill=0;" edge="1" parent="1" source="wxSaQS_MVH6TNpJF-AeM-152" target="wxSaQS_MVH6TNpJF-AeM-130">
          <mxGeometry relative="1" as="geometry">
            <Array as="points">
              <mxPoint x="835" y="604" />
              <mxPoint x="863" y="604" />
              <mxPoint x="863" y="742" />
              <mxPoint x="925" y="742" />
            </Array>
          </mxGeometry>
        </mxCell>
        <mxCell id="wxSaQS_MVH6TNpJF-AeM-152" value="" style="ellipse;whiteSpace=wrap;html=1;aspect=fixed;fillColor=#FFFFFF;" vertex="1" parent="1">
          <mxGeometry x="823" y="564" width="14" height="14" as="geometry" />
        </mxCell>
        <mxCell id="wxSaQS_MVH6TNpJF-AeM-153" value="Passport" style="text;html=1;align=center;verticalAlign=middle;resizable=0;points=[];autosize=1;strokeColor=none;fillColor=none;" vertex="1" parent="1">
          <mxGeometry x="793" y="534" width="70" height="30" as="geometry" />
        </mxCell>
        <mxCell id="wxSaQS_MVH6TNpJF-AeM-154" value="Prefix" style="text;html=1;align=center;verticalAlign=middle;resizable=0;points=[];autosize=1;strokeColor=none;fillColor=none;" vertex="1" parent="1">
          <mxGeometry x="780" y="556" width="50" height="30" as="geometry" />
        </mxCell>
        <mxCell id="wxSaQS_MVH6TNpJF-AeM-155" style="edgeStyle=orthogonalEdgeStyle;rounded=0;orthogonalLoop=1;jettySize=auto;html=1;exitX=1;exitY=1;exitDx=0;exitDy=0;entryX=0;entryY=0;entryDx=0;entryDy=0;curved=1;endArrow=none;startFill=0;" edge="1" parent="1" source="wxSaQS_MVH6TNpJF-AeM-156" target="wxSaQS_MVH6TNpJF-AeM-130">
          <mxGeometry relative="1" as="geometry">
            <mxPoint x="923" y="752" as="targetPoint" />
            <Array as="points">
              <mxPoint x="843" y="614" />
              <mxPoint x="843" y="754" />
            </Array>
          </mxGeometry>
        </mxCell>
        <mxCell id="wxSaQS_MVH6TNpJF-AeM-156" value="" style="ellipse;whiteSpace=wrap;html=1;aspect=fixed;fillColor=#FFFFFF;" vertex="1" parent="1">
          <mxGeometry x="816" y="602" width="14" height="14" as="geometry" />
        </mxCell>
        <mxCell id="wxSaQS_MVH6TNpJF-AeM-157" value="Suffix" style="text;html=1;align=center;verticalAlign=middle;resizable=0;points=[];autosize=1;strokeColor=none;fillColor=none;" vertex="1" parent="1">
          <mxGeometry x="774" y="586" width="50" height="30" as="geometry" />
        </mxCell>
        <mxCell id="wxSaQS_MVH6TNpJF-AeM-158" value="" style="ellipse;whiteSpace=wrap;html=1;aspect=fixed;fillColor=#FFFFFF;" vertex="1" parent="1">
          <mxGeometry x="1163" y="652" width="14" height="14" as="geometry" />
        </mxCell>
        <mxCell id="wxSaQS_MVH6TNpJF-AeM-159" value="" style="ellipse;whiteSpace=wrap;html=1;aspect=fixed;fillColor=#FFFFFF;" vertex="1" parent="1">
          <mxGeometry x="1193" y="692" width="14" height="14" as="geometry" />
        </mxCell>
        <mxCell id="wxSaQS_MVH6TNpJF-AeM-160" value="" style="ellipse;whiteSpace=wrap;html=1;aspect=fixed;fillColor=#FFFFFF;" vertex="1" parent="1">
          <mxGeometry x="1193" y="738" width="14" height="14" as="geometry" />
        </mxCell>
        <mxCell id="wxSaQS_MVH6TNpJF-AeM-161" value="" style="ellipse;whiteSpace=wrap;html=1;aspect=fixed;fillColor=#FFFFFF;" vertex="1" parent="1">
          <mxGeometry x="1155" y="766" width="14" height="14" as="geometry" />
        </mxCell>
        <mxCell id="wxSaQS_MVH6TNpJF-AeM-162" value="Maiden" style="text;html=1;align=center;verticalAlign=middle;resizable=0;points=[];autosize=1;strokeColor=none;fillColor=none;" vertex="1" parent="1">
          <mxGeometry x="1153" y="626" width="60" height="30" as="geometry" />
        </mxCell>
        <mxCell id="wxSaQS_MVH6TNpJF-AeM-163" value="Marital" style="text;html=1;align=center;verticalAlign=middle;resizable=0;points=[];autosize=1;strokeColor=none;fillColor=none;" vertex="1" parent="1">
          <mxGeometry x="1197" y="676" width="60" height="30" as="geometry" />
        </mxCell>
        <mxCell id="wxSaQS_MVH6TNpJF-AeM-164" value="Birthplace" style="text;html=1;align=center;verticalAlign=middle;resizable=0;points=[];autosize=1;strokeColor=none;fillColor=none;" vertex="1" parent="1">
          <mxGeometry x="1163" y="713" width="80" height="30" as="geometry" />
        </mxCell>
        <mxCell id="wxSaQS_MVH6TNpJF-AeM-165" value="Address" style="text;html=1;align=center;verticalAlign=middle;resizable=0;points=[];autosize=1;strokeColor=none;fillColor=none;" vertex="1" parent="1">
          <mxGeometry x="1160" y="758" width="70" height="30" as="geometry" />
        </mxCell>
        <mxCell id="wxSaQS_MVH6TNpJF-AeM-166" value="Zip_Code" style="text;html=1;align=center;verticalAlign=middle;resizable=0;points=[];autosize=1;strokeColor=none;fillColor=none;" vertex="1" parent="1">
          <mxGeometry x="824" y="842" width="80" height="30" as="geometry" />
        </mxCell>
        <mxCell id="wxSaQS_MVH6TNpJF-AeM-167" value="Lat" style="text;html=1;align=center;verticalAlign=middle;resizable=0;points=[];autosize=1;strokeColor=none;fillColor=none;" vertex="1" parent="1">
          <mxGeometry x="884" y="842" width="40" height="30" as="geometry" />
        </mxCell>
        <mxCell id="wxSaQS_MVH6TNpJF-AeM-168" value="" style="ellipse;whiteSpace=wrap;html=1;aspect=fixed;fillColor=#FFFFFF;" vertex="1" parent="1">
          <mxGeometry x="855" y="832" width="14" height="14" as="geometry" />
        </mxCell>
        <mxCell id="wxSaQS_MVH6TNpJF-AeM-169" value="" style="ellipse;whiteSpace=wrap;html=1;aspect=fixed;fillColor=#FFFFFF;" vertex="1" parent="1">
          <mxGeometry x="896" y="832" width="14" height="14" as="geometry" />
        </mxCell>
        <mxCell id="wxSaQS_MVH6TNpJF-AeM-170" value="Lon" style="text;html=1;align=center;verticalAlign=middle;resizable=0;points=[];autosize=1;strokeColor=none;fillColor=none;" vertex="1" parent="1">
          <mxGeometry x="917" y="842" width="40" height="30" as="geometry" />
        </mxCell>
        <mxCell id="wxSaQS_MVH6TNpJF-AeM-171" value="" style="ellipse;whiteSpace=wrap;html=1;aspect=fixed;fillColor=#FFFFFF;" vertex="1" parent="1">
          <mxGeometry x="933" y="832" width="14" height="14" as="geometry" />
        </mxCell>
        <mxCell id="wxSaQS_MVH6TNpJF-AeM-172" value="" style="ellipse;whiteSpace=wrap;html=1;aspect=fixed;fillColor=#FFFFFF;" vertex="1" parent="1">
          <mxGeometry x="957" y="876" width="14" height="14" as="geometry" />
        </mxCell>
        <mxCell id="wxSaQS_MVH6TNpJF-AeM-173" value="" style="ellipse;whiteSpace=wrap;html=1;aspect=fixed;fillColor=#FFFFFF;" vertex="1" parent="1">
          <mxGeometry x="989" y="898" width="14" height="14" as="geometry" />
        </mxCell>
        <mxCell id="wxSaQS_MVH6TNpJF-AeM-174" value="Healthcare_expenses" style="text;html=1;align=center;verticalAlign=middle;resizable=0;points=[];autosize=1;strokeColor=none;fillColor=none;" vertex="1" parent="1">
          <mxGeometry x="828" y="868" width="140" height="30" as="geometry" />
        </mxCell>
        <mxCell id="wxSaQS_MVH6TNpJF-AeM-175" value="Healthcare_coverage" style="text;html=1;align=center;verticalAlign=middle;resizable=0;points=[];autosize=1;strokeColor=none;fillColor=none;" vertex="1" parent="1">
          <mxGeometry x="857" y="890" width="140" height="30" as="geometry" />
        </mxCell>
        <mxCell id="wxSaQS_MVH6TNpJF-AeM-176" style="edgeStyle=orthogonalEdgeStyle;rounded=0;orthogonalLoop=1;jettySize=auto;html=1;exitX=1;exitY=0.5;exitDx=0;exitDy=0;entryX=0;entryY=0.5;entryDx=0;entryDy=0;endArrow=none;startFill=0;" edge="1" parent="1" source="wxSaQS_MVH6TNpJF-AeM-177" target="wxSaQS_MVH6TNpJF-AeM-178">
          <mxGeometry relative="1" as="geometry" />
        </mxCell>
        <mxCell id="wxSaQS_MVH6TNpJF-AeM-177" value="" style="ellipse;whiteSpace=wrap;html=1;aspect=fixed;fillColor=#FFFFFF;" vertex="1" parent="1">
          <mxGeometry x="1173" y="812" width="14" height="14" as="geometry" />
        </mxCell>
        <mxCell id="wxSaQS_MVH6TNpJF-AeM-178" value="" style="ellipse;whiteSpace=wrap;html=1;aspect=fixed;fillColor=#FFFFFF;" vertex="1" parent="1">
          <mxGeometry x="1243" y="812" width="14" height="14" as="geometry" />
        </mxCell>
        <mxCell id="wxSaQS_MVH6TNpJF-AeM-179" style="edgeStyle=orthogonalEdgeStyle;rounded=0;orthogonalLoop=1;jettySize=auto;html=1;exitX=1;exitY=0.5;exitDx=0;exitDy=0;entryX=0;entryY=0.5;entryDx=0;entryDy=0;endArrow=none;startFill=0;" edge="1" parent="1" source="wxSaQS_MVH6TNpJF-AeM-180" target="wxSaQS_MVH6TNpJF-AeM-181">
          <mxGeometry relative="1" as="geometry" />
        </mxCell>
        <mxCell id="wxSaQS_MVH6TNpJF-AeM-180" value="" style="ellipse;whiteSpace=wrap;html=1;aspect=fixed;fillColor=#FFFFFF;" vertex="1" parent="1">
          <mxGeometry x="1173" y="862" width="14" height="14" as="geometry" />
        </mxCell>
        <mxCell id="wxSaQS_MVH6TNpJF-AeM-181" value="" style="ellipse;whiteSpace=wrap;html=1;aspect=fixed;fillColor=#FFFFFF;" vertex="1" parent="1">
          <mxGeometry x="1243" y="862" width="14" height="14" as="geometry" />
        </mxCell>
        <mxCell id="wxSaQS_MVH6TNpJF-AeM-182" value="Id_Race" style="text;html=1;align=center;verticalAlign=middle;resizable=0;points=[];autosize=1;strokeColor=none;fillColor=none;" vertex="1" parent="1">
          <mxGeometry x="1150" y="788" width="70" height="30" as="geometry" />
        </mxCell>
        <mxCell id="wxSaQS_MVH6TNpJF-AeM-183" value="Name" style="text;html=1;align=center;verticalAlign=middle;resizable=0;points=[];autosize=1;strokeColor=none;fillColor=none;" vertex="1" parent="1">
          <mxGeometry x="1225" y="788" width="60" height="30" as="geometry" />
        </mxCell>
        <mxCell id="wxSaQS_MVH6TNpJF-AeM-184" value="Id_Ethnicity" style="text;html=1;align=center;verticalAlign=middle;resizable=0;points=[];autosize=1;strokeColor=none;fillColor=none;" vertex="1" parent="1">
          <mxGeometry x="1138" y="830" width="90" height="30" as="geometry" />
        </mxCell>
        <mxCell id="wxSaQS_MVH6TNpJF-AeM-185" value="Name" style="text;html=1;align=center;verticalAlign=middle;resizable=0;points=[];autosize=1;strokeColor=none;fillColor=none;" vertex="1" parent="1">
          <mxGeometry x="1225" y="830" width="60" height="30" as="geometry" />
        </mxCell>
        <mxCell id="wxSaQS_MVH6TNpJF-AeM-188" style="edgeStyle=orthogonalEdgeStyle;rounded=0;orthogonalLoop=1;jettySize=auto;html=1;exitX=0.5;exitY=1;exitDx=0;exitDy=0;entryX=0.5;entryY=0;entryDx=0;entryDy=0;endArrow=none;startFill=0;" edge="1" parent="1" source="wxSaQS_MVH6TNpJF-AeM-186" target="wxSaQS_MVH6TNpJF-AeM-17">
          <mxGeometry relative="1" as="geometry" />
        </mxCell>
        <mxCell id="wxSaQS_MVH6TNpJF-AeM-186" value="" style="ellipse;whiteSpace=wrap;html=1;aspect=fixed;fillColor=#FFFFFF;" vertex="1" parent="1">
          <mxGeometry x="393" y="880" width="14" height="14" as="geometry" />
        </mxCell>
        <mxCell id="wxSaQS_MVH6TNpJF-AeM-187" value="Base_Cost" style="text;html=1;align=center;verticalAlign=middle;resizable=0;points=[];autosize=1;strokeColor=none;fillColor=none;" vertex="1" parent="1">
          <mxGeometry x="350" y="850" width="80" height="30" as="geometry" />
        </mxCell>
      </root>
    </mxGraphModel>
  </diagram>
</mxfile>
